<svg xmlns="http://www.w3.org/2000/svg" fill="none" viewBox="0 0 15 15">
  <defs/>
  <path fill="#F0B90B" d="M7.5 15a7.5 7.5 0 110-15 7.5 7.5 0 010 15z"/>
  <path fill="#fff" d="M10.297 7.5l1.147 1.155L12.6 7.5l-1.156-1.155L10.297 7.5zM7.5 4.703L5.524 6.679 4.368 5.524l1.976-1.969L7.5 2.4l1.155 1.155 1.969 1.969-1.156 1.155L7.5 4.703zM3.555 6.345L4.703 7.5 3.547 8.655 2.4 7.5l1.155-1.155zM7.5 10.297l1.976-1.976 1.148 1.155-1.977 1.976L7.5 12.6l-1.156-1.155-1.976-1.977 1.156-1.147L7.5 10.297zm0-1.642L6.344 7.5 7.5 6.345 8.655 7.5 7.5 8.655z"/>
</svg>
