<svg viewBox="0 0 180 180" fill="none" xmlns="http://www.w3.org/2000/svg">
<path fill-rule="evenodd" clip-rule="evenodd" d="M0 43.8584V76.5554C0 78.3507 2.18221 79.2368 3.43383 77.9497L41.2713 39.0402C42.0279 38.2621 43.2671 38.2295 44.0636 38.9667L88.6415 80.2235C89.4082 80.9331 90.5918 80.9331 91.3585 80.2235L135.936 38.9667C136.733 38.2295 137.972 38.2621 138.729 39.0402L176.566 77.9497C177.818 79.2368 180 78.3507 180 76.5554V43.8584C180 43.3376 179.797 42.8374 179.434 42.464L138.729 0.605682C137.972 -0.172401 136.733 -0.205025 135.936 0.532169L91.3585 41.789C90.5918 42.4985 89.4082 42.4985 88.6415 41.789L44.0636 0.532172C43.2671 -0.205021 42.0279 -0.172404 41.2713 0.605679L0.566174 42.464C0.20312 42.8374 0 43.3376 0 43.8584ZM154.174 70.9009L177.965 95.0309C178.755 95.8326 178.729 97.1286 177.906 97.8969L91.3604 178.699C90.5938 179.415 89.4044 179.417 88.6354 178.704L1.52854 97.9121C0.694813 97.1388 0.672719 95.8269 1.47994 95.026L25.8261 70.8698C26.6067 70.0953 27.8661 70.0962 28.6455 70.8719L88.5892 130.522C89.3695 131.299 90.6305 131.299 91.4107 130.522L151.339 70.8874C152.124 70.1057 153.396 70.1117 154.174 70.9009Z" fill="url(#paint0_linear_981_10772)"/>
<defs>
<linearGradient id="paint0_linear_981_10772" x1="29.1892" y1="6.80222e-06" x2="132.806" y2="189.103" gradientUnits="userSpaceOnUse">
<stop stop-color="#3A37C5"/>
<stop offset="0.0001" stop-color="#312DD3"/>
<stop offset="1" stop-color="#EEFBC0"/>
</linearGradient>
</defs>
</svg>
