<?xml version="1.0" standalone="no"?>
<!DOCTYPE svg PUBLIC "-//W3C//DTD SVG 20010904//EN"
 "http://www.w3.org/TR/2001/REC-SVG-20010904/DTD/svg10.dtd">
<svg version="1.0" xmlns="http://www.w3.org/2000/svg"
 width="700.000000pt" height="700.000000pt" viewBox="0 0 700.000000 700.000000"
 preserveAspectRatio="xMidYMid meet">
<metadata>
Created by potrace 1.14, written by Peter Selinger 2001-2017
</metadata>
<g transform="translate(0.000000,700.000000) scale(0.100000,-0.100000)"
fill="#000000" stroke="none">
<path d="M1552 6921 c-75 -77 -563 -578 -712 -731 -140 -145 -595 -612 -675
-694 -44 -45 -99 -103 -122 -129 l-43 -47 0 -654 c0 -468 3 -662 11 -680 13
-27 51 -44 85 -38 11 1 131 116 265 254 134 138 280 288 324 333 44 45 181
187 305 314 602 620 643 660 673 656 31 -4 40 -10 132 -96 125 -115 222 -205
269 -249 27 -25 82 -76 122 -113 40 -38 83 -77 96 -88 12 -12 72 -66 132 -122
60 -56 118 -110 130 -120 12 -10 48 -44 81 -75 33 -32 145 -136 250 -232 104
-96 199 -184 211 -195 11 -11 64 -60 118 -110 54 -49 133 -123 175 -162 112
-107 130 -107 232 -11 62 59 250 234 308 287 14 13 77 72 140 130 63 58 123
114 134 124 12 10 73 66 136 125 64 59 149 138 191 177 41 38 100 93 130 121
30 29 66 62 80 74 14 12 74 67 134 123 60 56 118 110 130 120 12 10 68 63 126
117 121 114 183 170 190 171 53 9 54 9 230 -170 173 -175 707 -724 810 -831
29 -30 161 -166 293 -302 263 -270 273 -277 328 -231 l29 25 0 664 0 664 -42
47 c-24 26 -77 82 -118 124 -124 126 -592 608 -675 694 -43 44 -193 198 -334
343 -141 145 -299 307 -351 362 -95 98 -127 118 -167 103 -18 -7 -93 -73 -278
-246 -16 -16 -70 -66 -120 -112 -49 -45 -106 -98 -126 -116 -20 -19 -80 -74
-133 -124 -54 -49 -110 -101 -125 -115 -72 -67 -257 -238 -280 -259 -14 -13
-80 -74 -146 -135 -109 -101 -146 -136 -256 -237 -138 -128 -255 -237 -270
-251 -26 -25 -62 -45 -76 -43 -7 2 -19 3 -26 4 -13 1 -32 17 -157 134 -41 38
-100 92 -130 121 -31 28 -108 100 -172 159 -64 59 -125 116 -136 126 -12 9
-74 67 -138 127 -65 60 -145 134 -178 164 -33 30 -92 85 -130 122 -39 37 -81
76 -94 86 -19 17 -190 175 -256 237 -12 11 -78 72 -146 135 -69 63 -149 138
-178 165 -95 88 -110 87 -210 -14z"/>
<path d="M1020 4253 c-14 -10 -240 -231 -503 -493 -438 -435 -478 -478 -479
-509 -1 -35 31 -70 213 -236 30 -27 113 -104 184 -171 72 -66 198 -183 280
-259 83 -77 173 -160 200 -186 28 -26 64 -60 81 -75 17 -16 80 -74 139 -129
60 -55 143 -132 185 -171 41 -39 89 -83 105 -99 27 -24 179 -165 260 -240 68
-63 249 -231 275 -255 15 -14 78 -72 140 -130 62 -58 125 -116 140 -130 15
-14 75 -70 135 -125 59 -55 122 -113 139 -129 32 -29 208 -193 325 -302 36
-34 78 -72 92 -85 15 -13 75 -69 135 -125 60 -56 121 -112 135 -125 15 -13 74
-69 133 -123 59 -55 116 -106 127 -114 38 -26 78 -7 171 81 47 45 115 109 150
141 35 32 121 113 192 180 71 67 137 128 147 137 21 18 255 237 359 336 41 39
85 80 97 90 12 11 75 69 140 130 65 61 134 125 153 143 47 43 138 129 298 279
73 68 141 132 152 141 11 9 78 72 150 140 72 68 139 130 149 139 15 13 195
182 306 286 36 34 252 235 305 285 19 18 87 81 150 141 64 59 125 116 136 126
26 22 274 256 361 339 86 82 86 102 -1 192 -412 426 -890 904 -913 913 -13 5
-33 5 -45 0 -22 -8 -409 -390 -1733 -1710 -346 -345 -639 -633 -651 -639 -11
-6 -32 -10 -45 -9 -17 1 -199 176 -667 642 -856 852 -1663 1654 -1698 1687
-39 36 -73 43 -104 21z"/>
</g>
</svg>
